<svg width="900" height="620" viewBox="0 0 900 620" xmlns="http://www.w3.org/2000/svg" role="img" aria-label="Eco city with waste collection truck">
  <defs>
    <linearGradient id="bg" x1="0" y1="0" x2="1" y2="1">
      <stop offset="0%" stop-color="#f6fbf7"/>
      <stop offset="100%" stop-color="#deefe3"/>
    </linearGradient>
    <linearGradient id="truck" x1="0" y1="0" x2="1" y2="1">
      <stop offset="0%" stop-color="#2e7d32"/>
      <stop offset="100%" stop-color="#43a047"/>
    </linearGradient>
  </defs>

  <rect x="0" y="0" width="900" height="620" rx="34" fill="url(#bg)"/>
  <ellipse cx="700" cy="130" rx="150" ry="74" fill="#d4ebe2"/>
  <circle cx="768" cy="100" r="28" fill="#ffffff" opacity="0.92"/>
  <circle cx="810" cy="112" r="20" fill="#ffffff" opacity="0.92"/>

  <rect x="0" y="470" width="900" height="150" fill="#cce8d0"/>
  <rect x="40" y="500" width="820" height="20" rx="10" fill="#94c89e"/>

  <rect x="130" y="210" width="72" height="260" rx="10" fill="#95cba0"/>
  <rect x="220" y="190" width="72" height="280" rx="10" fill="#7cbc89"/>
  <rect x="312" y="238" width="72" height="232" rx="10" fill="#9ecda8"/>
  <rect x="404" y="166" width="72" height="304" rx="10" fill="#83bf8e"/>

  <rect x="500" y="340" width="208" height="88" rx="14" fill="url(#truck)"/>
  <rect x="692" y="356" width="92" height="72" rx="12" fill="#49ad56"/>
  <rect x="734" y="372" width="36" height="24" rx="4" fill="#d7f0dc"/>
  <circle cx="560" cy="442" r="30" fill="#2d4d31"/>
  <circle cx="740" cy="442" r="30" fill="#2d4d31"/>

  <rect x="98" y="380" width="58" height="90" rx="12" fill="#3ea34d"/>
  <rect x="168" y="368" width="58" height="102" rx="12" fill="#2e7d32"/>
  <rect x="238" y="386" width="58" height="84" rx="12" fill="#63ba70"/>

  <path d="M118 426 l10 14 20 -24" stroke="#ffffff" stroke-width="6" fill="none" stroke-linecap="round" stroke-linejoin="round"/>
  <path d="M188 422 l10 14 20 -24" stroke="#ffffff" stroke-width="6" fill="none" stroke-linecap="round" stroke-linejoin="round"/>
</svg>
